<mxfile host="app.diagrams.net" agent="Mozilla/5.0 (Windows NT 10.0; Win64; x64) AppleWebKit/537.36 (KHTML, like Gecko) Chrome/127.0.0.0 Safari/537.36" version="27.2.0">
  <diagram id="C5RBs43oDa-KdzZeNtuy" name="Page-1">
    <mxGraphModel dx="1426" dy="751" grid="1" gridSize="10" guides="1" tooltips="1" connect="1" arrows="1" fold="1" page="1" pageScale="1" pageWidth="827" pageHeight="1169" math="1" shadow="0">
      <root>
        <mxCell id="WIyWlLk6GJQsqaUBKTNV-0" />
        <mxCell id="WIyWlLk6GJQsqaUBKTNV-1" parent="WIyWlLk6GJQsqaUBKTNV-0" />
        <mxCell id="Qun-1m7nf-zi6OMP6i0j-0" value="&lt;font style=&quot;font-size: 13px;&quot;&gt;$$x_{0}$$&lt;/font&gt;" style="text;html=1;strokeColor=none;fillColor=none;align=center;verticalAlign=middle;whiteSpace=wrap;rounded=0;" parent="WIyWlLk6GJQsqaUBKTNV-1" vertex="1">
          <mxGeometry x="498.25" y="219.99999999999994" width="20" height="30" as="geometry" />
        </mxCell>
        <mxCell id="Qun-1m7nf-zi6OMP6i0j-2" value="" style="endArrow=oval;html=1;rounded=0;endFill=1;startArrow=oval;startFill=1;" parent="WIyWlLk6GJQsqaUBKTNV-1" edge="1">
          <mxGeometry width="50" height="50" relative="1" as="geometry">
            <mxPoint x="506" y="260" as="sourcePoint" />
            <mxPoint x="626" y="200" as="targetPoint" />
          </mxGeometry>
        </mxCell>
        <mxCell id="Qun-1m7nf-zi6OMP6i0j-8" value="&lt;font style=&quot;font-size: 13px;&quot;&gt;$$x^1_{1}$$&lt;/font&gt;" style="text;html=1;strokeColor=none;fillColor=none;align=center;verticalAlign=middle;whiteSpace=wrap;rounded=0;" parent="WIyWlLk6GJQsqaUBKTNV-1" vertex="1">
          <mxGeometry x="617" y="161" width="20" height="30" as="geometry" />
        </mxCell>
        <mxCell id="Qun-1m7nf-zi6OMP6i0j-9" value="" style="endArrow=oval;html=1;rounded=0;endFill=1;startArrow=oval;startFill=1;" parent="WIyWlLk6GJQsqaUBKTNV-1" edge="1">
          <mxGeometry width="50" height="50" relative="1" as="geometry">
            <mxPoint x="626" y="200" as="sourcePoint" />
            <mxPoint x="716" y="200" as="targetPoint" />
          </mxGeometry>
        </mxCell>
        <mxCell id="Qun-1m7nf-zi6OMP6i0j-10" value="&lt;font style=&quot;font-size: 13px;&quot;&gt;$$x^1_{2}$$&lt;/font&gt;" style="text;html=1;strokeColor=none;fillColor=none;align=center;verticalAlign=middle;whiteSpace=wrap;rounded=0;" parent="WIyWlLk6GJQsqaUBKTNV-1" vertex="1">
          <mxGeometry x="706" y="161" width="20" height="30" as="geometry" />
        </mxCell>
        <mxCell id="Qun-1m7nf-zi6OMP6i0j-11" value="&lt;font style=&quot;font-size: 13px;&quot;&gt;$$x^1_{N_p}$$&lt;/font&gt;" style="text;html=1;strokeColor=none;fillColor=none;align=center;verticalAlign=middle;whiteSpace=wrap;rounded=0;" parent="WIyWlLk6GJQsqaUBKTNV-1" vertex="1">
          <mxGeometry x="766" y="161" width="20" height="30" as="geometry" />
        </mxCell>
        <mxCell id="Qun-1m7nf-zi6OMP6i0j-12" value="" style="endArrow=oval;dashed=1;html=1;dashPattern=1 3;strokeWidth=2;rounded=0;endFill=1;" parent="WIyWlLk6GJQsqaUBKTNV-1" edge="1">
          <mxGeometry width="50" height="50" relative="1" as="geometry">
            <mxPoint x="716" y="200" as="sourcePoint" />
            <mxPoint x="776" y="200" as="targetPoint" />
          </mxGeometry>
        </mxCell>
        <mxCell id="Qun-1m7nf-zi6OMP6i0j-13" value="&lt;div&gt;&lt;font style=&quot;font-size: 13px;&quot;&gt;$${\xi}_\mathrm{ch}$$&lt;/font&gt;&lt;/div&gt;" style="text;html=1;strokeColor=none;fillColor=none;align=center;verticalAlign=middle;whiteSpace=wrap;rounded=0;" parent="WIyWlLk6GJQsqaUBKTNV-1" vertex="1">
          <mxGeometry x="649.5" y="167" width="20" height="30" as="geometry" />
        </mxCell>
        <mxCell id="Qun-1m7nf-zi6OMP6i0j-14" value="&lt;div&gt;&lt;font style=&quot;font-size: 13px;&quot;&gt;$${\xi}^{+}_\mathrm{ch}$$&lt;/font&gt;&lt;/div&gt;" style="text;html=1;strokeColor=none;fillColor=none;align=center;verticalAlign=middle;whiteSpace=wrap;rounded=0;" parent="WIyWlLk6GJQsqaUBKTNV-1" vertex="1">
          <mxGeometry x="536" y="205.99999999999994" width="20" height="30" as="geometry" />
        </mxCell>
        <mxCell id="Qun-1m7nf-zi6OMP6i0j-15" value="&lt;font style=&quot;font-size: 13px;&quot;&gt;$$x^2_{1}$$&lt;/font&gt;" style="text;html=1;strokeColor=none;fillColor=none;align=center;verticalAlign=middle;whiteSpace=wrap;rounded=0;" parent="WIyWlLk6GJQsqaUBKTNV-1" vertex="1">
          <mxGeometry x="617" y="279.99999999999994" width="20" height="30" as="geometry" />
        </mxCell>
        <mxCell id="Qun-1m7nf-zi6OMP6i0j-16" value="" style="endArrow=oval;html=1;rounded=0;endFill=1;startArrow=oval;startFill=1;" parent="WIyWlLk6GJQsqaUBKTNV-1" edge="1">
          <mxGeometry width="50" height="50" relative="1" as="geometry">
            <mxPoint x="626" y="320" as="sourcePoint" />
            <mxPoint x="716" y="320" as="targetPoint" />
          </mxGeometry>
        </mxCell>
        <mxCell id="Qun-1m7nf-zi6OMP6i0j-17" value="&lt;font style=&quot;font-size: 13px;&quot;&gt;$$x^2_{2}$$&lt;/font&gt;" style="text;html=1;strokeColor=none;fillColor=none;align=center;verticalAlign=middle;whiteSpace=wrap;rounded=0;" parent="WIyWlLk6GJQsqaUBKTNV-1" vertex="1">
          <mxGeometry x="706" y="279.99999999999994" width="20" height="30" as="geometry" />
        </mxCell>
        <mxCell id="Qun-1m7nf-zi6OMP6i0j-18" value="&lt;font style=&quot;font-size: 13px;&quot;&gt;$$x^2_{N_p}$$&lt;/font&gt;" style="text;html=1;strokeColor=none;fillColor=none;align=center;verticalAlign=middle;whiteSpace=wrap;rounded=0;" parent="WIyWlLk6GJQsqaUBKTNV-1" vertex="1">
          <mxGeometry x="766" y="279.99999999999994" width="20" height="30" as="geometry" />
        </mxCell>
        <mxCell id="Qun-1m7nf-zi6OMP6i0j-19" value="" style="endArrow=oval;dashed=1;html=1;dashPattern=1 3;strokeWidth=2;rounded=0;endFill=1;" parent="WIyWlLk6GJQsqaUBKTNV-1" edge="1">
          <mxGeometry width="50" height="50" relative="1" as="geometry">
            <mxPoint x="726" y="320" as="sourcePoint" />
            <mxPoint x="776" y="320" as="targetPoint" />
          </mxGeometry>
        </mxCell>
        <mxCell id="Qun-1m7nf-zi6OMP6i0j-20" value="&lt;div&gt;&lt;font style=&quot;font-size: 13px;&quot;&gt;$${\xi}_\mathrm{ch}$$&lt;/font&gt;&lt;/div&gt;" style="text;html=1;strokeColor=none;fillColor=none;align=center;verticalAlign=middle;whiteSpace=wrap;rounded=0;" parent="WIyWlLk6GJQsqaUBKTNV-1" vertex="1">
          <mxGeometry x="649.5" y="290.99999999999994" width="20" height="30" as="geometry" />
        </mxCell>
        <mxCell id="Qun-1m7nf-zi6OMP6i0j-21" value="" style="endArrow=oval;html=1;rounded=0;endFill=1;startArrow=oval;startFill=1;" parent="WIyWlLk6GJQsqaUBKTNV-1" edge="1">
          <mxGeometry width="50" height="50" relative="1" as="geometry">
            <mxPoint x="506" y="260" as="sourcePoint" />
            <mxPoint x="626" y="320" as="targetPoint" />
          </mxGeometry>
        </mxCell>
        <mxCell id="Qun-1m7nf-zi6OMP6i0j-22" value="&lt;div&gt;&lt;font style=&quot;font-size: 13px;&quot;&gt;$${\xi}^{-}_\mathrm{ch}$$&lt;/font&gt;&lt;/div&gt;" style="text;html=1;strokeColor=none;fillColor=none;align=center;verticalAlign=middle;whiteSpace=wrap;rounded=0;" parent="WIyWlLk6GJQsqaUBKTNV-1" vertex="1">
          <mxGeometry x="536" y="249.99999999999994" width="20" height="30" as="geometry" />
        </mxCell>
        <mxCell id="Qun-1m7nf-zi6OMP6i0j-25" value="&lt;font style=&quot;font-size: 13px;&quot;&gt;$$N_r=1$$&lt;/font&gt;" style="text;html=1;align=center;verticalAlign=middle;resizable=0;points=[];autosize=1;strokeColor=none;fillColor=none;" parent="WIyWlLk6GJQsqaUBKTNV-1" vertex="1">
          <mxGeometry x="537.5" y="101" width="90" height="30" as="geometry" />
        </mxCell>
        <mxCell id="Qun-1m7nf-zi6OMP6i0j-27" value="&lt;font style=&quot;font-size: 13px;&quot;&gt;$$N_p$$&lt;/font&gt;" style="text;html=1;align=center;verticalAlign=middle;resizable=0;points=[];autosize=1;strokeColor=none;fillColor=none;" parent="WIyWlLk6GJQsqaUBKTNV-1" vertex="1">
          <mxGeometry x="599.25" y="58.99999999999999" width="80" height="30" as="geometry" />
        </mxCell>
        <mxCell id="Qun-1m7nf-zi6OMP6i0j-48" value="&lt;font style=&quot;font-size: 13px;&quot;&gt;$$u^1_{0}$$&lt;/font&gt;" style="text;html=1;strokeColor=none;fillColor=none;align=center;verticalAlign=middle;whiteSpace=wrap;rounded=0;" parent="WIyWlLk6GJQsqaUBKTNV-1" vertex="1">
          <mxGeometry x="568.25" y="190.99999999999994" width="20" height="30" as="geometry" />
        </mxCell>
        <mxCell id="Qun-1m7nf-zi6OMP6i0j-49" value="&lt;font style=&quot;font-size: 13px;&quot;&gt;$$u_{1}$$&lt;/font&gt;" style="text;html=1;strokeColor=none;fillColor=none;align=center;verticalAlign=middle;whiteSpace=wrap;rounded=0;" parent="WIyWlLk6GJQsqaUBKTNV-1" vertex="1">
          <mxGeometry x="674.25" y="167" width="20" height="30" as="geometry" />
        </mxCell>
        <mxCell id="Qun-1m7nf-zi6OMP6i0j-50" value="&lt;font style=&quot;font-size: 13px;&quot;&gt;$$u^2_{0}$$&lt;/font&gt;" style="text;html=1;strokeColor=none;fillColor=none;align=center;verticalAlign=middle;whiteSpace=wrap;rounded=0;" parent="WIyWlLk6GJQsqaUBKTNV-1" vertex="1">
          <mxGeometry x="570.5" y="262.99999999999994" width="20" height="30" as="geometry" />
        </mxCell>
        <mxCell id="Qun-1m7nf-zi6OMP6i0j-51" value="&lt;font style=&quot;font-size: 13px;&quot;&gt;$$u_{1}$$&lt;/font&gt;" style="text;html=1;strokeColor=none;fillColor=none;align=center;verticalAlign=middle;whiteSpace=wrap;rounded=0;" parent="WIyWlLk6GJQsqaUBKTNV-1" vertex="1">
          <mxGeometry x="674.25" y="290.99999999999994" width="20" height="30" as="geometry" />
        </mxCell>
        <mxCell id="Qun-1m7nf-zi6OMP6i0j-52" value="$$x_{0}$$" style="text;html=1;strokeColor=none;fillColor=none;align=center;verticalAlign=middle;whiteSpace=wrap;rounded=0;" parent="WIyWlLk6GJQsqaUBKTNV-1" vertex="1">
          <mxGeometry x="15" y="174.5" width="20" height="30" as="geometry" />
        </mxCell>
        <mxCell id="Qun-1m7nf-zi6OMP6i0j-53" value="" style="endArrow=oval;html=1;rounded=0;endFill=1;startArrow=oval;startFill=1;" parent="WIyWlLk6GJQsqaUBKTNV-1" edge="1">
          <mxGeometry width="50" height="50" relative="1" as="geometry">
            <mxPoint x="25" y="211" as="sourcePoint" />
            <mxPoint x="205" y="51" as="targetPoint" />
          </mxGeometry>
        </mxCell>
        <mxCell id="Qun-1m7nf-zi6OMP6i0j-54" value="$$x^1_{1}$$" style="text;html=1;strokeColor=none;fillColor=none;align=center;verticalAlign=middle;whiteSpace=wrap;rounded=0;" parent="WIyWlLk6GJQsqaUBKTNV-1" vertex="1">
          <mxGeometry x="193" y="11" width="20" height="30" as="geometry" />
        </mxCell>
        <mxCell id="Qun-1m7nf-zi6OMP6i0j-55" value="" style="endArrow=oval;html=1;rounded=0;endFill=1;startArrow=oval;startFill=1;" parent="WIyWlLk6GJQsqaUBKTNV-1" edge="1">
          <mxGeometry width="50" height="50" relative="1" as="geometry">
            <mxPoint x="205" y="51" as="sourcePoint" />
            <mxPoint x="325" y="51" as="targetPoint" />
          </mxGeometry>
        </mxCell>
        <mxCell id="Qun-1m7nf-zi6OMP6i0j-56" value="$$x^1_{2}$$" style="text;html=1;strokeColor=none;fillColor=none;align=center;verticalAlign=middle;whiteSpace=wrap;rounded=0;" parent="WIyWlLk6GJQsqaUBKTNV-1" vertex="1">
          <mxGeometry x="314" y="11" width="20" height="30" as="geometry" />
        </mxCell>
        <mxCell id="Qun-1m7nf-zi6OMP6i0j-57" value="$$x^1_{N_p}$$" style="text;html=1;strokeColor=none;fillColor=none;align=center;verticalAlign=middle;whiteSpace=wrap;rounded=0;" parent="WIyWlLk6GJQsqaUBKTNV-1" vertex="1">
          <mxGeometry x="413.5" y="11" width="20" height="30" as="geometry" />
        </mxCell>
        <mxCell id="Qun-1m7nf-zi6OMP6i0j-58" value="" style="endArrow=oval;dashed=1;html=1;dashPattern=1 3;strokeWidth=2;rounded=0;endFill=1;" parent="WIyWlLk6GJQsqaUBKTNV-1" edge="1">
          <mxGeometry width="50" height="50" relative="1" as="geometry">
            <mxPoint x="325" y="51" as="sourcePoint" />
            <mxPoint x="425" y="51" as="targetPoint" />
          </mxGeometry>
        </mxCell>
        <mxCell id="Qun-1m7nf-zi6OMP6i0j-59" value="&lt;div&gt;$$\boldsymbol{\xi}$$&lt;/div&gt;" style="text;html=1;strokeColor=none;fillColor=none;align=center;verticalAlign=middle;whiteSpace=wrap;rounded=0;" parent="WIyWlLk6GJQsqaUBKTNV-1" vertex="1">
          <mxGeometry x="241" y="21" width="20" height="30" as="geometry" />
        </mxCell>
        <mxCell id="Qun-1m7nf-zi6OMP6i0j-60" value="&lt;div&gt;$$\boldsymbol{\xi}^{1}$$&lt;/div&gt;" style="text;html=1;strokeColor=none;fillColor=none;align=center;verticalAlign=middle;whiteSpace=wrap;rounded=0;" parent="WIyWlLk6GJQsqaUBKTNV-1" vertex="1">
          <mxGeometry x="128" y="78" width="20" height="30" as="geometry" />
        </mxCell>
        <mxCell id="Qun-1m7nf-zi6OMP6i0j-61" value="$$x^2_{1}$$" style="text;html=1;strokeColor=none;fillColor=none;align=center;verticalAlign=middle;whiteSpace=wrap;rounded=0;" parent="WIyWlLk6GJQsqaUBKTNV-1" vertex="1">
          <mxGeometry x="193" y="89" width="20" height="30" as="geometry" />
        </mxCell>
        <mxCell id="Qun-1m7nf-zi6OMP6i0j-62" value="" style="endArrow=oval;html=1;rounded=0;endFill=1;startArrow=oval;startFill=1;" parent="WIyWlLk6GJQsqaUBKTNV-1" edge="1">
          <mxGeometry width="50" height="50" relative="1" as="geometry">
            <mxPoint x="205" y="131" as="sourcePoint" />
            <mxPoint x="325" y="131" as="targetPoint" />
          </mxGeometry>
        </mxCell>
        <mxCell id="Qun-1m7nf-zi6OMP6i0j-63" value="$$x^2_{2}$$" style="text;html=1;strokeColor=none;fillColor=none;align=center;verticalAlign=middle;whiteSpace=wrap;rounded=0;" parent="WIyWlLk6GJQsqaUBKTNV-1" vertex="1">
          <mxGeometry x="314" y="89" width="20" height="30" as="geometry" />
        </mxCell>
        <mxCell id="Qun-1m7nf-zi6OMP6i0j-64" value="$$x^2_{N_p}$$" style="text;html=1;strokeColor=none;fillColor=none;align=center;verticalAlign=middle;whiteSpace=wrap;rounded=0;" parent="WIyWlLk6GJQsqaUBKTNV-1" vertex="1">
          <mxGeometry x="413.5" y="89" width="20" height="30" as="geometry" />
        </mxCell>
        <mxCell id="Qun-1m7nf-zi6OMP6i0j-65" value="" style="endArrow=oval;dashed=1;html=1;dashPattern=1 3;strokeWidth=2;rounded=0;endFill=1;" parent="WIyWlLk6GJQsqaUBKTNV-1" edge="1">
          <mxGeometry width="50" height="50" relative="1" as="geometry">
            <mxPoint x="325" y="131" as="sourcePoint" />
            <mxPoint x="425" y="131" as="targetPoint" />
          </mxGeometry>
        </mxCell>
        <mxCell id="Qun-1m7nf-zi6OMP6i0j-67" value="" style="endArrow=oval;html=1;rounded=0;endFill=1;startArrow=oval;startFill=1;" parent="WIyWlLk6GJQsqaUBKTNV-1" edge="1">
          <mxGeometry width="50" height="50" relative="1" as="geometry">
            <mxPoint x="25" y="211" as="sourcePoint" />
            <mxPoint x="205" y="131" as="targetPoint" />
          </mxGeometry>
        </mxCell>
        <mxCell id="Qun-1m7nf-zi6OMP6i0j-68" value="&lt;div&gt;$$\boldsymbol{\xi}^{2}$$&lt;/div&gt;" style="text;html=1;strokeColor=none;fillColor=none;align=center;verticalAlign=middle;whiteSpace=wrap;rounded=0;" parent="WIyWlLk6GJQsqaUBKTNV-1" vertex="1">
          <mxGeometry x="128" y="131" width="20" height="30" as="geometry" />
        </mxCell>
        <mxCell id="Qun-1m7nf-zi6OMP6i0j-69" value="$$u^1_{0}$$" style="text;html=1;strokeColor=none;fillColor=none;align=center;verticalAlign=middle;whiteSpace=wrap;rounded=0;" parent="WIyWlLk6GJQsqaUBKTNV-1" vertex="1">
          <mxGeometry x="148" y="59" width="20" height="30" as="geometry" />
        </mxCell>
        <mxCell id="Qun-1m7nf-zi6OMP6i0j-70" value="$$u_{1}$$" style="text;html=1;strokeColor=none;fillColor=none;align=center;verticalAlign=middle;whiteSpace=wrap;rounded=0;" parent="WIyWlLk6GJQsqaUBKTNV-1" vertex="1">
          <mxGeometry x="277" y="21" width="20" height="30" as="geometry" />
        </mxCell>
        <mxCell id="Qun-1m7nf-zi6OMP6i0j-71" value="$$u^2_{0}$$" style="text;html=1;strokeColor=none;fillColor=none;align=center;verticalAlign=middle;whiteSpace=wrap;rounded=0;" parent="WIyWlLk6GJQsqaUBKTNV-1" vertex="1">
          <mxGeometry x="149" y="119" width="20" height="30" as="geometry" />
        </mxCell>
        <mxCell id="Qun-1m7nf-zi6OMP6i0j-72" value="$$u_{1}$$" style="text;html=1;strokeColor=none;fillColor=none;align=center;verticalAlign=middle;whiteSpace=wrap;rounded=0;" parent="WIyWlLk6GJQsqaUBKTNV-1" vertex="1">
          <mxGeometry x="277" y="101" width="20" height="30" as="geometry" />
        </mxCell>
        <mxCell id="Qun-1m7nf-zi6OMP6i0j-73" value="$$x^j_{1}$$" style="text;html=1;strokeColor=none;fillColor=none;align=center;verticalAlign=middle;whiteSpace=wrap;rounded=0;" parent="WIyWlLk6GJQsqaUBKTNV-1" vertex="1">
          <mxGeometry x="193" y="172" width="20" height="30" as="geometry" />
        </mxCell>
        <mxCell id="Qun-1m7nf-zi6OMP6i0j-74" value="" style="endArrow=oval;html=1;rounded=0;endFill=1;startArrow=oval;startFill=1;dashed=1;" parent="WIyWlLk6GJQsqaUBKTNV-1" edge="1">
          <mxGeometry width="50" height="50" relative="1" as="geometry">
            <mxPoint x="205" y="211" as="sourcePoint" />
            <mxPoint x="325" y="211" as="targetPoint" />
          </mxGeometry>
        </mxCell>
        <mxCell id="Qun-1m7nf-zi6OMP6i0j-75" value="$$x^j_{2}$$" style="text;html=1;strokeColor=none;fillColor=none;align=center;verticalAlign=middle;whiteSpace=wrap;rounded=0;" parent="WIyWlLk6GJQsqaUBKTNV-1" vertex="1">
          <mxGeometry x="314" y="167" width="20" height="30" as="geometry" />
        </mxCell>
        <mxCell id="Qun-1m7nf-zi6OMP6i0j-76" value="$$x^j_{N_p}$$" style="text;html=1;strokeColor=none;fillColor=none;align=center;verticalAlign=middle;whiteSpace=wrap;rounded=0;" parent="WIyWlLk6GJQsqaUBKTNV-1" vertex="1">
          <mxGeometry x="413.5" y="167" width="20" height="30" as="geometry" />
        </mxCell>
        <mxCell id="Qun-1m7nf-zi6OMP6i0j-77" value="" style="endArrow=oval;dashed=1;html=1;dashPattern=1 3;strokeWidth=2;rounded=0;endFill=1;" parent="WIyWlLk6GJQsqaUBKTNV-1" edge="1">
          <mxGeometry width="50" height="50" relative="1" as="geometry">
            <mxPoint x="325" y="211" as="sourcePoint" />
            <mxPoint x="425" y="211" as="targetPoint" />
          </mxGeometry>
        </mxCell>
        <mxCell id="Qun-1m7nf-zi6OMP6i0j-81" value="$$u_{1}$$" style="text;html=1;strokeColor=none;fillColor=none;align=center;verticalAlign=middle;whiteSpace=wrap;rounded=0;" parent="WIyWlLk6GJQsqaUBKTNV-1" vertex="1">
          <mxGeometry x="277" y="177.5" width="20" height="30" as="geometry" />
        </mxCell>
        <mxCell id="Qun-1m7nf-zi6OMP6i0j-82" value="$$x^7_{1}$$" style="text;html=1;strokeColor=none;fillColor=none;align=center;verticalAlign=middle;whiteSpace=wrap;rounded=0;" parent="WIyWlLk6GJQsqaUBKTNV-1" vertex="1">
          <mxGeometry x="193" y="246" width="20" height="30" as="geometry" />
        </mxCell>
        <mxCell id="Qun-1m7nf-zi6OMP6i0j-83" value="" style="endArrow=oval;html=1;rounded=0;endFill=1;startArrow=oval;startFill=1;" parent="WIyWlLk6GJQsqaUBKTNV-1" edge="1">
          <mxGeometry width="50" height="50" relative="1" as="geometry">
            <mxPoint x="205" y="291" as="sourcePoint" />
            <mxPoint x="325" y="291" as="targetPoint" />
          </mxGeometry>
        </mxCell>
        <mxCell id="Qun-1m7nf-zi6OMP6i0j-84" value="$$x^7_{2}$$" style="text;html=1;strokeColor=none;fillColor=none;align=center;verticalAlign=middle;whiteSpace=wrap;rounded=0;" parent="WIyWlLk6GJQsqaUBKTNV-1" vertex="1">
          <mxGeometry x="314" y="246" width="20" height="30" as="geometry" />
        </mxCell>
        <mxCell id="Qun-1m7nf-zi6OMP6i0j-85" value="$$x^7_{N_p}$$" style="text;html=1;strokeColor=none;fillColor=none;align=center;verticalAlign=middle;whiteSpace=wrap;rounded=0;" parent="WIyWlLk6GJQsqaUBKTNV-1" vertex="1">
          <mxGeometry x="413.5" y="246" width="20" height="30" as="geometry" />
        </mxCell>
        <mxCell id="Qun-1m7nf-zi6OMP6i0j-86" value="" style="endArrow=oval;dashed=1;html=1;dashPattern=1 3;strokeWidth=2;rounded=0;endFill=1;" parent="WIyWlLk6GJQsqaUBKTNV-1" edge="1">
          <mxGeometry width="50" height="50" relative="1" as="geometry">
            <mxPoint x="325" y="291" as="sourcePoint" />
            <mxPoint x="425" y="291" as="targetPoint" />
          </mxGeometry>
        </mxCell>
        <mxCell id="Qun-1m7nf-zi6OMP6i0j-88" value="$$u_{1}$$" style="text;html=1;strokeColor=none;fillColor=none;align=center;verticalAlign=middle;whiteSpace=wrap;rounded=0;" parent="WIyWlLk6GJQsqaUBKTNV-1" vertex="1">
          <mxGeometry x="277" y="261" width="20" height="30" as="geometry" />
        </mxCell>
        <mxCell id="Qun-1m7nf-zi6OMP6i0j-89" value="$$x^8_{1}$$" style="text;html=1;strokeColor=none;fillColor=none;align=center;verticalAlign=middle;whiteSpace=wrap;rounded=0;" parent="WIyWlLk6GJQsqaUBKTNV-1" vertex="1">
          <mxGeometry x="193" y="328" width="20" height="30" as="geometry" />
        </mxCell>
        <mxCell id="Qun-1m7nf-zi6OMP6i0j-90" value="" style="endArrow=oval;html=1;rounded=0;endFill=1;startArrow=oval;startFill=1;" parent="WIyWlLk6GJQsqaUBKTNV-1" edge="1">
          <mxGeometry width="50" height="50" relative="1" as="geometry">
            <mxPoint x="205" y="371" as="sourcePoint" />
            <mxPoint x="325" y="371" as="targetPoint" />
          </mxGeometry>
        </mxCell>
        <mxCell id="Qun-1m7nf-zi6OMP6i0j-91" value="$$x^8_{2}$$" style="text;html=1;strokeColor=none;fillColor=none;align=center;verticalAlign=middle;whiteSpace=wrap;rounded=0;" parent="WIyWlLk6GJQsqaUBKTNV-1" vertex="1">
          <mxGeometry x="314" y="328" width="20" height="30" as="geometry" />
        </mxCell>
        <mxCell id="Qun-1m7nf-zi6OMP6i0j-92" value="$$x^8_{N_p}$$" style="text;html=1;strokeColor=none;fillColor=none;align=center;verticalAlign=middle;whiteSpace=wrap;rounded=0;" parent="WIyWlLk6GJQsqaUBKTNV-1" vertex="1">
          <mxGeometry x="413.5" y="328" width="20" height="30" as="geometry" />
        </mxCell>
        <mxCell id="Qun-1m7nf-zi6OMP6i0j-93" value="" style="endArrow=oval;dashed=1;html=1;dashPattern=1 3;strokeWidth=2;rounded=0;endFill=1;" parent="WIyWlLk6GJQsqaUBKTNV-1" edge="1">
          <mxGeometry width="50" height="50" relative="1" as="geometry">
            <mxPoint x="325" y="371" as="sourcePoint" />
            <mxPoint x="425" y="371" as="targetPoint" />
          </mxGeometry>
        </mxCell>
        <mxCell id="Qun-1m7nf-zi6OMP6i0j-95" value="$$u_{1}$$" style="text;html=1;strokeColor=none;fillColor=none;align=center;verticalAlign=middle;whiteSpace=wrap;rounded=0;" parent="WIyWlLk6GJQsqaUBKTNV-1" vertex="1">
          <mxGeometry x="277" y="341" width="20" height="30" as="geometry" />
        </mxCell>
        <mxCell id="Qun-1m7nf-zi6OMP6i0j-96" value="" style="endArrow=oval;html=1;rounded=0;endFill=1;startArrow=oval;startFill=1;dashed=1;" parent="WIyWlLk6GJQsqaUBKTNV-1" edge="1">
          <mxGeometry width="50" height="50" relative="1" as="geometry">
            <mxPoint x="25" y="211" as="sourcePoint" />
            <mxPoint x="205" y="211" as="targetPoint" />
          </mxGeometry>
        </mxCell>
        <mxCell id="Qun-1m7nf-zi6OMP6i0j-97" value="" style="endArrow=oval;html=1;rounded=0;endFill=1;startArrow=oval;startFill=1;" parent="WIyWlLk6GJQsqaUBKTNV-1" edge="1">
          <mxGeometry width="50" height="50" relative="1" as="geometry">
            <mxPoint x="25" y="211" as="sourcePoint" />
            <mxPoint x="205" y="291" as="targetPoint" />
          </mxGeometry>
        </mxCell>
        <mxCell id="Qun-1m7nf-zi6OMP6i0j-98" value="" style="endArrow=oval;html=1;rounded=0;endFill=1;startArrow=oval;startFill=1;" parent="WIyWlLk6GJQsqaUBKTNV-1" edge="1">
          <mxGeometry width="50" height="50" relative="1" as="geometry">
            <mxPoint x="25" y="211" as="sourcePoint" />
            <mxPoint x="205" y="371" as="targetPoint" />
          </mxGeometry>
        </mxCell>
        <mxCell id="Qun-1m7nf-zi6OMP6i0j-99" value="&lt;div&gt;$$\boldsymbol{\xi}^{8}$$&lt;/div&gt;" style="text;html=1;strokeColor=none;fillColor=none;align=center;verticalAlign=middle;whiteSpace=wrap;rounded=0;" parent="WIyWlLk6GJQsqaUBKTNV-1" vertex="1">
          <mxGeometry x="128" y="276" width="20" height="30" as="geometry" />
        </mxCell>
        <mxCell id="Qun-1m7nf-zi6OMP6i0j-100" value="$$u^8_{0}$$" style="text;html=1;strokeColor=none;fillColor=none;align=center;verticalAlign=middle;whiteSpace=wrap;rounded=0;" parent="WIyWlLk6GJQsqaUBKTNV-1" vertex="1">
          <mxGeometry x="149" y="298" width="20" height="30" as="geometry" />
        </mxCell>
        <mxCell id="Qun-1m7nf-zi6OMP6i0j-101" value="&lt;div&gt;$$\boldsymbol{\xi}^{7}$$&lt;/div&gt;" style="text;html=1;strokeColor=none;fillColor=none;align=center;verticalAlign=middle;whiteSpace=wrap;rounded=0;" parent="WIyWlLk6GJQsqaUBKTNV-1" vertex="1">
          <mxGeometry x="128" y="231" width="20" height="30" as="geometry" />
        </mxCell>
        <mxCell id="Qun-1m7nf-zi6OMP6i0j-102" value="$$u^7_{0}$$" style="text;html=1;strokeColor=none;fillColor=none;align=center;verticalAlign=middle;whiteSpace=wrap;rounded=0;" parent="WIyWlLk6GJQsqaUBKTNV-1" vertex="1">
          <mxGeometry x="150" y="236" width="18" height="27" as="geometry" />
        </mxCell>
        <mxCell id="Qun-1m7nf-zi6OMP6i0j-103" value="&lt;div&gt;$$\boldsymbol{\xi}^{j}$$&lt;/div&gt;" style="text;html=1;strokeColor=none;fillColor=none;align=center;verticalAlign=middle;whiteSpace=wrap;rounded=0;" parent="WIyWlLk6GJQsqaUBKTNV-1" vertex="1">
          <mxGeometry x="126" y="177.5" width="20" height="30" as="geometry" />
        </mxCell>
        <mxCell id="Qun-1m7nf-zi6OMP6i0j-104" value="$$u^j_{0}$$" style="text;html=1;strokeColor=none;fillColor=none;align=center;verticalAlign=middle;whiteSpace=wrap;rounded=0;" parent="WIyWlLk6GJQsqaUBKTNV-1" vertex="1">
          <mxGeometry x="149" y="179" width="18" height="27" as="geometry" />
        </mxCell>
        <mxCell id="Qun-1m7nf-zi6OMP6i0j-105" value="&lt;div&gt;$$\boldsymbol{\xi}$$&lt;/div&gt;" style="text;html=1;strokeColor=none;fillColor=none;align=center;verticalAlign=middle;whiteSpace=wrap;rounded=0;" parent="WIyWlLk6GJQsqaUBKTNV-1" vertex="1">
          <mxGeometry x="241" y="100.5" width="20" height="30" as="geometry" />
        </mxCell>
        <mxCell id="Qun-1m7nf-zi6OMP6i0j-108" value="&lt;div&gt;$$\boldsymbol{\xi}$$&lt;/div&gt;" style="text;html=1;strokeColor=none;fillColor=none;align=center;verticalAlign=middle;whiteSpace=wrap;rounded=0;" parent="WIyWlLk6GJQsqaUBKTNV-1" vertex="1">
          <mxGeometry x="240" y="179" width="20" height="30" as="geometry" />
        </mxCell>
        <mxCell id="Qun-1m7nf-zi6OMP6i0j-109" value="&lt;div&gt;$$\boldsymbol{\xi}$$&lt;/div&gt;" style="text;html=1;strokeColor=none;fillColor=none;align=center;verticalAlign=middle;whiteSpace=wrap;rounded=0;" parent="WIyWlLk6GJQsqaUBKTNV-1" vertex="1">
          <mxGeometry x="241" y="261" width="20" height="30" as="geometry" />
        </mxCell>
        <mxCell id="Qun-1m7nf-zi6OMP6i0j-110" value="&lt;div&gt;$$\boldsymbol{\xi}$$&lt;/div&gt;" style="text;html=1;strokeColor=none;fillColor=none;align=center;verticalAlign=middle;whiteSpace=wrap;rounded=0;" parent="WIyWlLk6GJQsqaUBKTNV-1" vertex="1">
          <mxGeometry x="240" y="341" width="20" height="30" as="geometry" />
        </mxCell>
        <mxCell id="Qun-1m7nf-zi6OMP6i0j-111" value="" style="endArrow=none;dashed=1;html=1;dashPattern=1 3;strokeWidth=2;rounded=0;" parent="WIyWlLk6GJQsqaUBKTNV-1" edge="1">
          <mxGeometry width="50" height="50" relative="1" as="geometry">
            <mxPoint x="270.8" y="172" as="sourcePoint" />
            <mxPoint x="270.8" y="148" as="targetPoint" />
          </mxGeometry>
        </mxCell>
        <mxCell id="Qun-1m7nf-zi6OMP6i0j-112" value="" style="endArrow=none;dashed=1;html=1;dashPattern=1 3;strokeWidth=2;rounded=0;" parent="WIyWlLk6GJQsqaUBKTNV-1" edge="1">
          <mxGeometry width="50" height="50" relative="1" as="geometry">
            <mxPoint x="270.8" y="255" as="sourcePoint" />
            <mxPoint x="270.8" y="231" as="targetPoint" />
          </mxGeometry>
        </mxCell>
        <mxCell id="UJTZAcefPIGWPJes7JFf-8" value="\(x_k^j -\) State at time \(k\) of scenario \(j\)" style="text;html=1;align=center;verticalAlign=middle;resizable=0;points=[];autosize=0;strokeColor=none;fillColor=none;imageAspect=1;expand=1;resizeWidth=0;resizeHeight=1;fontSize=14;" parent="WIyWlLk6GJQsqaUBKTNV-1" vertex="1">
          <mxGeometry x="15" y="465" width="220" height="30" as="geometry" />
        </mxCell>
        <mxCell id="UJTZAcefPIGWPJes7JFf-10" value="\(N_p-\) Prediction horizon" style="text;html=1;align=center;verticalAlign=middle;resizable=0;points=[];autosize=1;strokeColor=none;fillColor=none;fontSize=14;" parent="WIyWlLk6GJQsqaUBKTNV-1" vertex="1">
          <mxGeometry x="423.75" y="465" width="190" height="30" as="geometry" />
        </mxCell>
        <mxCell id="UJTZAcefPIGWPJes7JFf-11" value="\(N_r-\) Robust horizon" style="text;html=1;align=center;verticalAlign=middle;resizable=0;points=[];autosize=1;strokeColor=none;fillColor=none;fontSize=14;" parent="WIyWlLk6GJQsqaUBKTNV-1" vertex="1">
          <mxGeometry x="425.25" y="490" width="170" height="30" as="geometry" />
        </mxCell>
        <mxCell id="UJTZAcefPIGWPJes7JFf-12" value="\(u_k^j -\) Input at time \(k\) of scenario \(j\)" style="text;html=1;align=center;verticalAlign=middle;resizable=0;points=[];autosize=0;strokeColor=none;fillColor=none;imageAspect=1;expand=1;resizeWidth=0;resizeHeight=1;fontSize=14;" parent="WIyWlLk6GJQsqaUBKTNV-1" vertex="1">
          <mxGeometry x="15" y="489" width="220" height="30" as="geometry" />
        </mxCell>
        <mxCell id="UJTZAcefPIGWPJes7JFf-13" value="\(\boldsymbol{\xi}^j -\) Vector of influent macronutrients (CH, PR, LI) of scenario \(j\)" style="text;html=1;align=center;verticalAlign=middle;resizable=0;points=[];autosize=0;strokeColor=none;fillColor=none;imageAspect=1;expand=1;resizeWidth=0;resizeHeight=1;fontSize=14;" parent="WIyWlLk6GJQsqaUBKTNV-1" vertex="1">
          <mxGeometry x="112" y="514" width="220" height="30" as="geometry" />
        </mxCell>
        <mxCell id="UJTZAcefPIGWPJes7JFf-15" value="\(\xi^j_\mathrm{ch} -\) Influent CH concentration of scenario \(j\)" style="text;html=1;align=center;verticalAlign=middle;resizable=0;points=[];autosize=0;strokeColor=none;fillColor=none;imageAspect=1;expand=1;resizeWidth=0;resizeHeight=1;fontSize=14;" parent="WIyWlLk6GJQsqaUBKTNV-1" vertex="1">
          <mxGeometry x="474.25" y="514" width="220" height="30" as="geometry" />
        </mxCell>
        <mxCell id="UJTZAcefPIGWPJes7JFf-16" value="" style="shape=curlyBracket;whiteSpace=wrap;html=1;rounded=1;flipH=1;labelPosition=right;verticalLabelPosition=middle;align=left;verticalAlign=middle;direction=north;rotation=-180;size=0.5;" parent="WIyWlLk6GJQsqaUBKTNV-1" vertex="1">
          <mxGeometry x="504" y="129.82" width="123.5" height="20" as="geometry" />
        </mxCell>
        <mxCell id="UJTZAcefPIGWPJes7JFf-17" value="" style="shape=curlyBracket;whiteSpace=wrap;html=1;rounded=1;flipH=1;labelPosition=right;verticalLabelPosition=middle;align=left;verticalAlign=middle;direction=north;rotation=-180;" parent="WIyWlLk6GJQsqaUBKTNV-1" vertex="1">
          <mxGeometry x="503" y="89.82" width="272.5" height="20" as="geometry" />
        </mxCell>
      </root>
    </mxGraphModel>
  </diagram>
</mxfile>
